<svg id="svg" version="1.1" xmlns="http://www.w3.org/2000/svg" xmlns:xlink="http://www.w3.org/1999/xlink" width="400" height="400" viewBox="0, 0, 400,400"><g id="svgg"><path id="path0" d="M260.600 66.055 C 198.152 66.303,190.345 66.430,189.388 67.214 C 189.161 67.400,188.045 67.595,186.908 67.647 C 185.770 67.699,184.932 67.889,185.044 68.071 C 185.216 68.350,182.904 68.617,181.870 68.437 C 181.689 68.406,181.655 68.565,181.794 68.790 C 181.941 69.028,181.628 69.200,181.047 69.200 C 180.497 69.200,179.936 69.380,179.800 69.600 C 179.664 69.820,179.124 70.000,178.600 70.000 C 178.076 70.000,177.536 70.180,177.400 70.400 C 177.264 70.620,176.803 70.800,176.376 70.800 C 175.949 70.800,175.600 70.980,175.600 71.200 C 175.600 71.420,175.161 71.600,174.624 71.600 C 174.087 71.600,173.536 71.780,173.400 72.000 C 173.264 72.220,172.803 72.400,172.376 72.400 C 171.949 72.400,171.600 72.580,171.600 72.800 C 171.600 73.020,171.364 73.200,171.075 73.200 C 170.787 73.200,170.164 73.560,169.692 74.000 C 169.220 74.440,168.629 74.800,168.378 74.800 C 167.914 74.800,165.822 76.164,164.871 77.087 C 164.581 77.369,164.176 77.600,163.971 77.600 C 163.767 77.600,163.519 77.609,163.420 77.620 C 162.896 77.679,154.397 86.491,153.215 88.200 C 152.454 89.300,151.690 90.260,151.516 90.333 C 151.342 90.407,151.200 90.688,151.200 90.958 C 151.200 91.228,150.836 91.840,150.392 92.317 C 149.947 92.794,149.587 93.278,149.592 93.392 C 149.637 94.514,149.540 94.810,149.200 94.600 C 148.980 94.464,148.800 94.636,148.800 94.982 C 148.800 95.328,148.620 95.968,148.400 96.405 C 148.180 96.842,147.820 97.558,147.600 97.995 C 147.380 98.432,147.200 99.072,147.200 99.418 C 147.200 99.764,147.020 99.936,146.800 99.800 C 146.580 99.664,146.400 99.915,146.400 100.357 C 146.400 100.799,146.105 102.205,145.744 103.480 C 145.383 104.756,145.005 106.565,144.904 107.500 C 144.802 108.435,144.600 109.200,144.454 109.200 C 144.308 109.200,144.136 110.385,144.072 111.834 C 144.007 113.283,143.796 114.884,143.603 115.392 C 143.139 116.613,143.105 146.275,143.567 147.138 C 143.764 147.506,143.973 148.615,144.031 149.604 C 144.090 150.592,144.269 151.670,144.430 152.000 C 144.590 152.331,144.778 153.321,144.846 154.200 C 144.915 155.080,145.112 155.900,145.283 156.022 C 145.455 156.145,145.636 156.730,145.685 157.322 C 145.734 157.915,145.915 158.400,146.087 158.400 C 146.259 158.400,146.400 158.629,146.400 158.908 C 146.400 159.501,148.111 162.718,149.730 165.169 C 150.352 166.111,152.237 168.257,153.920 169.940 C 155.602 171.623,156.934 173.148,156.879 173.330 C 156.825 173.511,156.943 173.559,157.143 173.435 C 157.343 173.312,157.953 173.563,158.499 173.992 C 159.046 174.422,159.607 174.660,159.746 174.520 C 159.886 174.381,160.000 174.477,160.000 174.733 C 160.000 174.990,160.360 175.200,160.800 175.200 C 161.240 175.200,161.600 175.380,161.600 175.600 C 161.600 175.820,161.949 176.000,162.376 176.000 C 162.803 176.000,163.264 176.180,163.400 176.400 C 163.536 176.620,164.087 176.800,164.624 176.800 C 165.161 176.800,165.600 176.980,165.600 177.200 C 165.600 177.420,166.309 177.600,167.176 177.600 C 168.043 177.600,168.864 177.780,169.000 178.000 C 169.136 178.220,170.666 178.400,172.400 178.400 C 174.134 178.400,175.665 178.581,175.801 178.802 C 176.121 179.320,323.136 179.350,323.764 178.833 C 324.004 178.635,325.370 178.377,326.800 178.259 C 330.736 177.934,332.800 177.555,332.800 177.158 C 332.800 176.961,333.267 176.800,333.838 176.800 C 334.409 176.800,335.852 176.265,337.044 175.610 C 338.236 174.956,339.301 174.420,339.410 174.418 C 339.519 174.417,340.146 174.138,340.804 173.798 C 341.462 173.458,342.000 173.314,342.000 173.479 C 342.000 173.643,342.280 173.378,342.623 172.889 C 342.965 172.400,343.472 172.000,343.748 172.000 C 344.164 172.000,345.940 170.213,350.700 165.004 C 350.975 164.703,351.200 164.264,351.200 164.029 C 351.200 163.793,351.367 163.600,351.571 163.600 C 351.775 163.600,352.260 162.880,352.648 162.000 C 353.036 161.120,353.502 160.400,353.682 160.400 C 354.142 160.400,355.609 161.268,356.555 162.100 C 356.993 162.485,357.493 162.800,357.667 162.800 C 357.841 162.800,358.919 163.508,360.063 164.374 C 361.206 165.239,362.965 166.360,363.971 166.864 C 364.977 167.368,366.186 168.179,366.658 168.666 C 367.130 169.152,367.621 169.446,367.749 169.318 C 367.877 169.190,368.095 169.381,368.233 169.743 C 368.372 170.104,368.767 170.400,369.111 170.400 C 369.455 170.400,370.028 170.663,370.383 170.984 C 371.208 171.731,382.149 177.261,384.000 177.867 C 387.501 179.013,389.599 179.361,390.083 178.877 C 390.346 178.614,391.233 178.400,392.056 178.400 C 392.879 178.400,393.664 178.220,393.800 178.000 C 393.936 177.780,394.311 177.600,394.634 177.600 C 395.478 177.600,398.494 174.459,399.314 172.727 C 400.222 170.811,400.208 72.002,399.300 71.700 C 399.025 71.608,398.800 71.314,398.800 71.045 C 398.800 70.295,396.176 67.600,395.446 67.600 C 395.091 67.600,394.800 67.459,394.800 67.287 C 394.800 66.310,387.082 65.378,386.345 66.267 C 386.101 66.560,385.414 66.800,384.818 66.800 C 384.221 66.800,383.608 66.925,383.455 67.078 C 383.302 67.231,382.915 67.395,382.595 67.442 C 381.637 67.582,379.600 68.573,379.600 68.898 C 379.600 69.064,379.139 69.200,378.576 69.200 C 377.996 69.200,377.660 69.373,377.800 69.600 C 377.936 69.820,377.802 70.000,377.503 70.000 C 376.749 70.000,374.807 70.935,374.803 71.300 C 374.801 71.465,374.440 71.600,374.000 71.600 C 373.560 71.600,373.200 71.780,373.200 72.000 C 373.200 72.220,372.880 72.400,372.488 72.400 C 372.097 72.400,371.517 72.760,371.200 73.200 C 370.883 73.640,370.303 74.000,369.912 74.000 C 369.520 74.000,369.197 74.135,369.194 74.300 C 369.190 74.465,368.290 75.040,367.194 75.579 C 366.097 76.117,365.200 76.732,365.200 76.945 C 365.200 77.159,365.080 77.213,364.932 77.066 C 364.785 76.919,364.335 77.097,363.932 77.461 C 363.530 77.826,363.200 77.999,363.200 77.846 C 363.200 77.694,362.813 77.930,362.339 78.371 C 361.866 78.812,361.345 79.090,361.181 78.988 C 361.018 78.887,360.781 79.074,360.654 79.402 C 360.528 79.731,360.164 80.000,359.846 80.000 C 359.527 80.000,359.207 80.166,359.133 80.370 C 359.060 80.573,358.730 80.798,358.400 80.870 C 358.070 80.941,357.565 81.315,357.277 81.700 C 356.990 82.085,356.529 82.400,356.253 82.400 C 355.977 82.400,355.394 82.733,354.957 83.139 C 353.476 84.519,353.123 84.356,351.737 81.648 C 351.005 80.220,350.262 78.950,350.084 78.826 C 349.907 78.702,349.323 77.970,348.787 77.200 C 347.030 74.674,342.474 70.800,341.261 70.800 C 341.044 70.800,340.807 70.665,340.733 70.500 C 340.541 70.068,337.228 68.400,336.562 68.400 C 336.253 68.400,336.000 68.220,336.000 68.000 C 336.000 67.780,335.291 67.600,334.424 67.600 C 333.557 67.600,332.736 67.420,332.600 67.200 C 332.464 66.980,331.598 66.799,330.676 66.798 C 329.754 66.796,328.484 66.526,327.854 66.198 C 327.224 65.869,326.594 65.644,326.454 65.698 C 326.314 65.751,296.680 65.912,260.600 66.055 M125.937 256.026 C 112.178 257.506,103.802 266.661,100.416 283.920 C 100.141 285.320,100.000 303.607,100.000 337.826 L 100.000 389.613 111.100 389.506 L 122.200 389.400 122.400 337.200 C 122.587 288.444,122.646 284.915,123.301 283.719 C 124.424 281.663,126.731 279.688,129.152 278.709 L 131.400 277.800 189.200 277.800 L 247.000 277.800 248.820 278.642 C 251.472 279.869,253.369 281.708,254.449 284.097 L 255.400 286.200 255.600 337.800 L 255.800 389.400 266.700 389.506 L 277.600 389.613 277.600 336.706 C 277.600 278.541,277.682 280.623,275.156 274.556 C 271.447 265.648,264.963 260.485,252.759 256.723 L 249.800 255.811 189.400 255.754 C 156.180 255.722,127.621 255.845,125.937 256.026 " stroke="none" fill="#63737c" fill-rule="evenodd"></path><path id="path1" d="M196.600 65.600 C 195.940 65.768,224.830 65.909,260.800 65.913 C 296.770 65.917,325.750 65.776,325.200 65.600 C 323.924 65.191,198.207 65.191,196.600 65.600 M387.800 65.600 C 387.645 65.851,388.418 65.982,389.876 65.953 C 391.781 65.914,391.984 65.850,391.000 65.600 C 389.227 65.149,388.079 65.149,387.800 65.600 M327.328 65.884 C 327.670 66.437,329.200 66.828,329.200 66.363 C 329.200 66.163,329.035 66.000,328.833 66.000 C 328.631 66.000,328.151 65.879,327.767 65.732 C 327.328 65.564,327.165 65.620,327.328 65.884 M164.693 76.614 C 163.062 77.723,162.680 78.306,164.075 77.560 C 164.965 77.084,166.701 75.600,166.368 75.600 C 166.268 75.600,165.514 76.056,164.693 76.614 M349.293 78.000 C 349.568 78.440,349.931 78.800,350.100 78.800 C 350.269 78.800,350.182 78.440,349.907 78.000 C 349.632 77.560,349.269 77.200,349.100 77.200 C 348.931 77.200,349.018 77.560,349.293 78.000 M160.791 79.456 C 159.904 80.257,159.258 80.991,159.355 81.088 C 159.451 81.185,160.310 80.530,161.263 79.632 C 163.410 77.609,163.003 77.458,160.791 79.456 M151.693 89.600 C 151.418 90.040,151.331 90.400,151.500 90.400 C 151.669 90.400,152.032 90.040,152.307 89.600 C 152.582 89.160,152.669 88.800,152.500 88.800 C 152.331 88.800,151.968 89.160,151.693 89.600 M74.800 121.197 C 74.800 121.434,73.483 121.600,71.600 121.600 C 69.733 121.600,68.400 121.767,68.400 122.000 C 68.400 122.220,67.691 122.400,66.824 122.400 C 65.957 122.400,65.136 122.580,65.000 122.800 C 64.864 123.020,64.324 123.200,63.800 123.200 C 63.276 123.200,62.736 123.380,62.600 123.600 C 62.464 123.820,62.003 124.000,61.576 124.000 C 61.149 124.000,60.800 124.180,60.800 124.400 C 60.800 124.620,60.522 124.800,60.183 124.800 C 59.844 124.800,59.180 125.160,58.708 125.600 C 58.236 126.040,57.658 126.402,57.425 126.405 C 56.639 126.414,49.600 134.073,49.600 134.919 C 49.600 135.196,49.240 135.683,48.800 136.000 C 48.360 136.317,48.000 136.897,48.000 137.288 C 48.000 137.680,47.820 138.000,47.600 138.000 C 47.380 138.000,47.200 138.360,47.200 138.800 C 47.200 139.240,47.020 139.600,46.800 139.600 C 46.580 139.600,46.400 139.949,46.400 140.376 C 46.400 140.803,46.220 141.264,46.000 141.400 C 45.780 141.536,45.600 142.076,45.600 142.600 C 45.600 143.124,45.420 143.664,45.200 143.800 C 44.980 143.936,44.800 144.746,44.800 145.600 C 44.800 146.454,44.620 147.264,44.400 147.400 C 44.180 147.536,44.000 148.548,44.000 149.650 C 44.000 152.643,42.163 154.281,40.970 152.352 C 40.851 152.159,40.403 152.000,39.976 152.000 C 39.549 152.000,39.200 151.820,39.200 151.600 C 39.200 151.380,38.840 151.200,38.400 151.200 C 37.960 151.200,37.600 151.020,37.600 150.800 C 37.600 150.580,37.251 150.400,36.824 150.400 C 36.397 150.400,35.936 150.220,35.800 150.000 C 35.664 149.780,35.023 149.600,34.376 149.600 C 33.729 149.600,33.200 149.420,33.200 149.200 C 33.200 148.980,32.840 148.800,32.400 148.800 C 31.960 148.800,31.600 148.620,31.600 148.400 C 31.600 148.180,31.060 148.000,30.400 148.000 C 29.740 148.000,29.200 147.820,29.200 147.600 C 29.200 147.380,28.660 147.200,28.000 147.200 C 27.340 147.200,26.800 147.020,26.800 146.800 C 26.800 146.580,26.361 146.400,25.824 146.400 C 25.287 146.400,24.736 146.220,24.600 146.000 C 24.464 145.780,23.924 145.600,23.400 145.600 C 22.876 145.600,22.336 145.420,22.200 145.200 C 22.064 144.980,21.344 144.800,20.600 144.800 C 19.856 144.800,19.150 144.643,19.031 144.450 C 18.603 143.757,9.003 142.948,8.617 143.572 C 8.472 143.808,7.744 144.000,7.000 144.000 C 6.256 144.000,5.536 144.180,5.400 144.400 C 5.264 144.620,4.885 144.800,4.558 144.800 C 3.880 144.800,2.000 146.551,2.000 147.182 C 2.000 147.412,1.820 147.600,1.600 147.600 C 1.380 147.600,1.200 147.855,1.200 148.167 C 1.200 148.478,0.975 148.808,0.700 148.900 C 0.303 149.032,0.200 161.817,0.200 211.042 L 0.200 273.017 2.491 275.309 C 3.752 276.569,5.057 277.600,5.391 277.600 C 5.726 277.600,6.000 277.780,6.000 278.000 C 6.000 278.220,6.720 278.400,7.600 278.400 C 8.480 278.400,9.200 278.580,9.200 278.800 C 9.200 279.020,10.179 279.200,11.376 279.200 C 12.573 279.200,13.664 279.020,13.800 278.800 C 13.936 278.580,15.016 278.400,16.200 278.400 C 17.384 278.400,18.464 278.220,18.600 278.000 C 18.736 277.780,19.467 277.600,20.224 277.600 C 20.981 277.600,21.600 277.420,21.600 277.200 C 21.600 276.980,22.129 276.800,22.776 276.800 C 23.423 276.800,24.064 276.620,24.200 276.400 C 24.336 276.180,24.977 276.000,25.624 276.000 C 26.271 276.000,26.800 275.820,26.800 275.600 C 26.800 275.380,27.073 275.200,27.408 275.200 C 28.163 275.200,32.729 273.609,35.400 272.415 C 36.500 271.923,37.760 271.384,38.200 271.217 C 38.640 271.050,39.782 270.528,40.738 270.057 C 41.694 269.586,42.637 269.200,42.834 269.200 C 43.042 269.200,43.262 286.059,43.357 309.300 C 43.517 348.267,43.665 354.587,44.432 355.380 C 44.635 355.589,44.800 356.624,44.800 357.680 C 44.800 358.736,44.980 359.600,45.200 359.600 C 45.420 359.600,45.600 360.140,45.600 360.800 C 45.600 361.460,45.780 362.000,46.000 362.000 C 46.220 362.000,46.400 362.349,46.400 362.776 C 46.400 363.203,46.580 363.664,46.800 363.800 C 47.020 363.936,47.200 364.487,47.200 365.024 C 47.200 365.561,47.380 366.000,47.600 366.000 C 47.820 366.000,48.000 366.272,48.000 366.605 C 48.000 367.161,48.723 368.724,49.201 369.200 C 49.311 369.310,49.671 369.936,50.001 370.591 C 51.421 373.413,62.111 383.200,63.772 383.200 C 64.117 383.200,64.401 383.335,64.403 383.500 C 64.407 383.859,66.344 384.800,67.080 384.800 C 67.366 384.800,67.600 384.980,67.600 385.200 C 67.600 385.420,67.960 385.600,68.400 385.600 C 68.840 385.600,69.200 385.780,69.200 386.000 C 69.200 386.220,69.740 386.400,70.400 386.400 C 71.060 386.400,71.600 386.580,71.600 386.800 C 71.600 387.020,72.140 387.200,72.800 387.200 C 73.460 387.200,74.000 387.380,74.000 387.600 C 74.000 387.820,74.594 388.000,75.320 388.000 C 76.046 388.000,76.811 388.162,77.020 388.359 C 77.727 389.027,80.970 389.292,90.500 389.460 L 100.000 389.628 100.000 337.834 C 100.000 303.610,100.141 285.320,100.416 283.920 C 103.899 266.169,112.165 257.444,126.888 255.979 C 129.550 255.715,151.951 255.613,190.400 255.691 L 249.800 255.812 252.759 256.724 C 264.962 260.484,271.447 265.648,275.156 274.556 C 277.682 280.623,277.600 278.541,277.600 336.700 L 277.600 389.600 288.200 389.600 C 295.000 389.600,298.800 389.457,298.800 389.200 C 298.800 388.980,299.689 388.800,300.776 388.800 C 301.863 388.800,302.864 388.620,303.000 388.400 C 303.136 388.180,303.599 388.000,304.030 388.000 C 305.138 388.000,308.000 387.065,308.000 386.703 C 308.000 386.536,308.540 386.400,309.200 386.400 C 309.860 386.400,310.400 386.220,310.400 386.000 C 310.400 385.780,310.760 385.600,311.200 385.600 C 311.640 385.600,312.000 385.441,312.000 385.247 C 312.000 385.052,312.315 384.793,312.700 384.671 C 313.869 384.301,315.724 383.062,316.853 381.900 C 317.440 381.295,318.101 380.800,318.322 380.800 C 318.876 380.800,324.000 375.418,324.000 374.835 C 324.000 374.701,324.405 374.135,324.900 373.576 C 325.395 373.018,326.042 372.140,326.338 371.625 C 328.021 368.698,328.400 367.919,328.400 367.388 C 328.400 367.065,328.580 366.800,328.800 366.800 C 329.020 366.800,329.200 366.440,329.200 366.000 C 329.200 365.560,329.380 365.200,329.600 365.200 C 329.820 365.200,330.000 364.660,330.000 364.000 C 330.000 363.340,330.180 362.800,330.400 362.800 C 330.620 362.800,330.800 362.440,330.800 362.000 C 330.800 361.560,330.980 361.200,331.200 361.200 C 331.420 361.200,331.600 360.581,331.600 359.824 C 331.600 359.067,331.780 358.336,332.000 358.200 C 332.220 358.064,332.400 357.344,332.400 356.600 C 332.400 355.856,332.580 355.136,332.800 355.000 C 333.020 354.864,333.200 353.788,333.200 352.610 C 333.200 351.431,333.388 350.404,333.617 350.328 C 335.007 349.864,335.535 200.294,334.154 198.186 C 333.522 197.221,331.876 196.830,331.436 197.541 C 330.475 199.097,167.523 199.094,166.562 197.538 C 166.447 197.352,165.791 197.200,165.105 197.200 C 163.862 197.200,161.626 196.618,160.305 195.951 C 159.923 195.758,159.284 195.600,158.885 195.600 C 158.486 195.600,157.989 195.452,157.780 195.272 C 157.571 195.091,156.140 194.433,154.600 193.809 C 153.060 193.186,151.629 192.523,151.420 192.338 C 151.211 192.152,150.798 192.000,150.503 192.000 C 150.208 192.000,149.580 191.640,149.108 191.200 C 148.636 190.760,148.013 190.400,147.725 190.400 C 147.436 190.400,147.200 190.220,147.200 190.000 C 147.200 189.780,146.975 189.600,146.700 189.599 C 146.425 189.599,145.570 189.059,144.800 188.400 C 144.030 187.741,143.220 187.195,143.000 187.187 C 142.625 187.173,141.844 186.347,136.357 180.173 C 133.217 176.640,132.400 175.631,132.400 175.285 C 132.400 175.116,132.040 174.717,131.600 174.400 C 131.160 174.083,130.800 173.503,130.800 173.112 C 130.800 172.720,130.620 172.400,130.400 172.400 C 130.180 172.400,130.000 172.040,130.000 171.600 C 130.000 171.160,129.820 170.800,129.600 170.800 C 129.380 170.800,129.200 170.440,129.200 170.000 C 129.200 169.560,129.020 169.200,128.800 169.200 C 128.580 169.200,128.400 168.840,128.400 168.400 C 128.400 167.960,128.220 167.600,128.000 167.600 C 127.780 167.600,127.600 167.060,127.600 166.400 C 127.600 165.740,127.420 165.200,127.200 165.200 C 126.980 165.200,126.800 164.660,126.800 164.000 C 126.800 163.340,126.620 162.800,126.400 162.800 C 126.180 162.800,126.000 162.296,126.000 161.680 C 126.000 161.064,125.842 160.389,125.649 160.180 C 125.323 159.828,124.941 157.845,123.917 151.200 C 123.697 149.770,123.401 142.390,123.259 134.800 L 123.000 121.000 98.900 120.897 C 82.907 120.828,74.800 120.929,74.800 121.197 M364.005 167.097 C 364.010 167.422,366.601 169.200,367.070 169.200 C 367.446 169.200,365.981 167.927,364.880 167.297 C 364.396 167.020,364.002 166.930,364.005 167.097 M153.617 170.233 C 154.598 171.240,155.940 172.444,156.600 172.908 C 157.260 173.372,156.555 172.547,155.034 171.076 C 151.895 168.040,150.916 167.458,153.617 170.233 M346.834 169.115 C 346.523 169.492,345.815 170.295,345.260 170.900 C 343.625 172.682,344.479 172.158,346.400 170.200 C 347.372 169.210,347.994 168.407,347.783 168.415 C 347.572 168.424,347.145 168.739,346.834 169.115 M369.448 170.906 C 371.456 172.077,372.985 172.885,372.790 172.674 C 372.228 172.065,369.507 170.401,369.082 170.406 C 368.817 170.409,368.981 170.634,369.448 170.906 M131.948 278.002 C 128.092 278.664,124.915 280.770,123.288 283.742 C 122.650 284.908,122.585 288.808,122.400 337.300 L 122.200 389.600 189.000 389.600 L 255.800 389.600 255.600 337.900 L 255.400 286.200 254.449 284.097 C 253.369 281.708,251.472 279.869,248.820 278.642 L 247.000 277.800 190.400 277.742 C 159.270 277.710,132.967 277.827,131.948 278.002 " stroke="none" fill="#34343c" fill-rule="evenodd"></path></g></svg>